<?xml version="1.0" encoding="UTF-8"?>
<svg id="Layer_1" data-name="Layer 1" xmlns="http://www.w3.org/2000/svg" xmlns:xlink="http://www.w3.org/1999/xlink" viewBox="0 0 814.7 334.7">
  <defs>
    <style>
      .cls-1 {
        fill: #1f81ab;
        font-family: Poppins-Bold, Poppins;
        font-size: 135.98px;
        font-weight: 700;
      }

      .cls-2 {
        fill: url(#linear-gradient);
      }
    </style>
    <linearGradient id="linear-gradient" x1="39.47" y1="251" x2="257.68" y2="32.79" gradientUnits="userSpaceOnUse">
      <stop offset="0" stop-color="#27aae1"/>
      <stop offset="1" stop-color="#00a79d"/>
    </linearGradient>
  </defs>
  <path class="cls-2" d="m281.71,56.82c-5.47-4.14-40.39-29.68-87.81-20.73-49,9.25-72.3,47.95-75.61,53.66,4.07.95,55.87,13.86,68.29,54.87,10.24,33.79-8.85,78.04-36.58,96.35-9.79,6.46-23.47,11.55-30.49,26.82-1.6,3.48-6.29,14.96-2.44,28.05,6.71,22.83,33.05,29.03,34.15,29.27-29.46,3.09-56.51-11.07-67.08-34.14-6.01-13.14-8.27-32.62,0-47.57,3.81-6.87,6.31-6.41,24.39-26.83,14.32-16.16,15.99-20.11,16.07-24.43.23-13.27-14.69-23.06-18.5-25.57-17.9-11.73-37.99-8.47-45.13-7.31-9.17,1.49-17.07,4.52-23.62,8.01.88-3.13,2.04-6.32,3.51-9.53,7.4-16.15,19.24-25.16,24.99-28.97-7.47,1.88-21.85,6.67-34.14,19.51-8.36,8.74-13.25,18.58-16.02,27.95-3.39-16.82-6.19-45.05,5.04-75.51C41.97,43.12,101.46,10.03,156.1,6.82c70.3-4.14,117.71,42.05,125.61,50Z"/>
  <text class="cls-1" transform="translate(236.35 206.68)"><tspan x="0" y="0">Ticketer</tspan></text>
</svg>